<mxfile host="app.diagrams.net" modified="2021-03-28T07:54:31.927Z" agent="5.0 (Windows NT 10.0; WOW64) AppleWebKit/537.36 (KHTML, like Gecko) Chrome/89.0.4389.90 Safari/537.36" etag="Z7hfpmNYyyBLZdK7OSlX" version="14.5.3" type="github">
  <diagram id="-yYUHBhE_XRFBAiaxtTz" name="Page-1">
    <mxGraphModel dx="1376" dy="645" grid="1" gridSize="10" guides="1" tooltips="1" connect="1" arrows="1" fold="1" page="1" pageScale="1" pageWidth="1169" pageHeight="827" math="0" shadow="0">
      <root>
        <mxCell id="0" />
        <mxCell id="1" parent="0" />
        <mxCell id="RfxXFTX7ezen7zibbZqR-38" value="ae1" style="text;html=1;strokeColor=#9673a6;align=center;verticalAlign=middle;whiteSpace=wrap;rounded=0;fillColor=#e1d5e7;" vertex="1" parent="1">
          <mxGeometry x="520" y="628.5" width="120" height="21.5" as="geometry" />
        </mxCell>
        <mxCell id="RfxXFTX7ezen7zibbZqR-14" value="VLAN 1 / Clients&lt;br&gt;10.200.1.0/24" style="rounded=1;whiteSpace=wrap;html=1;labelPosition=center;verticalLabelPosition=bottom;align=center;verticalAlign=top;strokeColor=#82b366;fillColor=none;" vertex="1" parent="1">
          <mxGeometry x="690" y="531" width="280" height="225" as="geometry" />
        </mxCell>
        <mxCell id="RfxXFTX7ezen7zibbZqR-13" value="VLAN 2 / Server&lt;br&gt;10.200.2.0/24" style="rounded=1;whiteSpace=wrap;html=1;labelPosition=center;verticalLabelPosition=bottom;align=center;verticalAlign=top;strokeColor=#d6b656;fillColor=none;" vertex="1" parent="1">
          <mxGeometry x="190" y="531" width="290" height="225" as="geometry" />
        </mxCell>
        <mxCell id="RfxXFTX7ezen7zibbZqR-20" value="eth1/2" style="edgeStyle=orthogonalEdgeStyle;rounded=0;orthogonalLoop=1;jettySize=auto;html=1;exitX=0.985;exitY=0.015;exitDx=0;exitDy=0;exitPerimeter=0;endArrow=none;endFill=0;" edge="1" parent="1" source="RfxXFTX7ezen7zibbZqR-2" target="RfxXFTX7ezen7zibbZqR-17">
          <mxGeometry x="-0.776" relative="1" as="geometry">
            <mxPoint as="offset" />
          </mxGeometry>
        </mxCell>
        <mxCell id="RfxXFTX7ezen7zibbZqR-25" value="eth1/3" style="edgeStyle=orthogonalEdgeStyle;rounded=0;orthogonalLoop=1;jettySize=auto;html=1;exitX=0.015;exitY=0.985;exitDx=0;exitDy=0;exitPerimeter=0;entryX=0.5;entryY=0;entryDx=0;entryDy=0;entryPerimeter=0;endArrow=none;endFill=0;" edge="1" parent="1" source="RfxXFTX7ezen7zibbZqR-2" target="RfxXFTX7ezen7zibbZqR-12">
          <mxGeometry relative="1" as="geometry" />
        </mxCell>
        <mxCell id="RfxXFTX7ezen7zibbZqR-26" value="eth1/4" style="edgeStyle=orthogonalEdgeStyle;rounded=0;orthogonalLoop=1;jettySize=auto;html=1;exitX=0.985;exitY=0.985;exitDx=0;exitDy=0;exitPerimeter=0;entryX=0.5;entryY=0;entryDx=0;entryDy=0;entryPerimeter=0;endArrow=none;endFill=0;" edge="1" parent="1" source="RfxXFTX7ezen7zibbZqR-2" target="RfxXFTX7ezen7zibbZqR-23">
          <mxGeometry relative="1" as="geometry" />
        </mxCell>
        <mxCell id="RfxXFTX7ezen7zibbZqR-2" value="" style="points=[[0.015,0.015,0],[0.985,0.015,0],[0.985,0.985,0],[0.015,0.985,0],[0.25,0,0],[0.5,0,0],[0.75,0,0],[1,0.25,0],[1,0.5,0],[1,0.75,0],[0.75,1,0],[0.5,1,0],[0.25,1,0],[0,0.75,0],[0,0.5,0],[0,0.25,0]];verticalLabelPosition=bottom;html=1;verticalAlign=top;aspect=fixed;align=center;pointerEvents=1;shape=mxgraph.cisco19.rect;prIcon=firewall;fillColor=#FAFAFA;strokeColor=#005073;" vertex="1" parent="1">
          <mxGeometry x="550" y="554" width="64" height="50" as="geometry" />
        </mxCell>
        <mxCell id="RfxXFTX7ezen7zibbZqR-42" style="edgeStyle=none;rounded=0;orthogonalLoop=1;jettySize=auto;html=1;exitX=0.5;exitY=1;exitDx=0;exitDy=0;exitPerimeter=0;endArrow=none;endFill=0;" edge="1" parent="1" source="RfxXFTX7ezen7zibbZqR-4">
          <mxGeometry relative="1" as="geometry">
            <mxPoint x="394" y="700" as="targetPoint" />
          </mxGeometry>
        </mxCell>
        <mxCell id="RfxXFTX7ezen7zibbZqR-4" value="SRV1&lt;br&gt;10.200.2.10" style="points=[[0.015,0.015,0],[0.985,0.015,0],[0.985,0.985,0],[0.015,0.985,0],[0.25,0,0],[0.5,0,0],[0.75,0,0],[1,0.25,0],[1,0.5,0],[1,0.75,0],[0.75,1,0],[0.5,1,0],[0.25,1,0],[0,0.75,0],[0,0.5,0],[0,0.25,0]];verticalLabelPosition=middle;html=1;verticalAlign=middle;aspect=fixed;align=left;pointerEvents=1;shape=mxgraph.cisco19.server;fillColor=#005073;strokeColor=none;labelPosition=right;spacingLeft=2;" vertex="1" parent="1">
          <mxGeometry x="380" y="618.5" width="27.500000000000004" height="50" as="geometry" />
        </mxCell>
        <mxCell id="RfxXFTX7ezen7zibbZqR-41" style="edgeStyle=none;rounded=0;orthogonalLoop=1;jettySize=auto;html=1;exitX=0.5;exitY=1;exitDx=0;exitDy=0;exitPerimeter=0;endArrow=none;endFill=0;" edge="1" parent="1" source="RfxXFTX7ezen7zibbZqR-6">
          <mxGeometry relative="1" as="geometry">
            <mxPoint x="825" y="700" as="targetPoint" />
          </mxGeometry>
        </mxCell>
        <mxCell id="RfxXFTX7ezen7zibbZqR-6" value="Client&lt;br&gt;10.200.1.35" style="points=[[0.03,0.03,0],[0.5,0,0],[0.97,0.03,0],[1,0.4,0],[0.97,0.745,0],[0.5,1,0],[0.03,0.745,0],[0,0.4,0]];verticalLabelPosition=middle;html=1;verticalAlign=middle;aspect=fixed;align=left;pointerEvents=1;shape=mxgraph.cisco19.workstation;fillColor=#005073;strokeColor=none;labelPosition=right;spacingRight=0;spacingLeft=2;" vertex="1" parent="1">
          <mxGeometry x="800" y="618.5" width="50" height="40" as="geometry" />
        </mxCell>
        <mxCell id="RfxXFTX7ezen7zibbZqR-43" value="VWIRE" style="edgeStyle=orthogonalEdgeStyle;rounded=0;orthogonalLoop=1;jettySize=auto;html=1;exitX=0.5;exitY=0;exitDx=0;exitDy=0;exitPerimeter=0;entryX=0;entryY=0.25;entryDx=0;entryDy=0;entryPerimeter=0;endArrow=none;endFill=0;" edge="1" parent="1" source="RfxXFTX7ezen7zibbZqR-10" target="RfxXFTX7ezen7zibbZqR-2">
          <mxGeometry x="0.8053" relative="1" as="geometry">
            <mxPoint as="offset" />
          </mxGeometry>
        </mxCell>
        <mxCell id="RfxXFTX7ezen7zibbZqR-10" value="SRV2&lt;br&gt;10.200.2.20" style="points=[[0.015,0.015,0],[0.985,0.015,0],[0.985,0.985,0],[0.015,0.985,0],[0.25,0,0],[0.5,0,0],[0.75,0,0],[1,0.25,0],[1,0.5,0],[1,0.75,0],[0.75,1,0],[0.5,1,0],[0.25,1,0],[0,0.75,0],[0,0.5,0],[0,0.25,0]];verticalLabelPosition=middle;html=1;verticalAlign=middle;aspect=fixed;align=right;pointerEvents=1;shape=mxgraph.cisco19.server;fillColor=#005073;strokeColor=none;labelPosition=left;spacingRight=2;" vertex="1" parent="1">
          <mxGeometry x="280" y="618.5" width="27.500000000000004" height="50" as="geometry" />
        </mxCell>
        <mxCell id="RfxXFTX7ezen7zibbZqR-24" style="edgeStyle=orthogonalEdgeStyle;rounded=0;orthogonalLoop=1;jettySize=auto;html=1;exitX=1;exitY=0.5;exitDx=0;exitDy=0;exitPerimeter=0;entryX=0;entryY=0.5;entryDx=0;entryDy=0;entryPerimeter=0;endArrow=none;endFill=0;" edge="1" parent="1" source="RfxXFTX7ezen7zibbZqR-12" target="RfxXFTX7ezen7zibbZqR-23">
          <mxGeometry relative="1" as="geometry" />
        </mxCell>
        <mxCell id="RfxXFTX7ezen7zibbZqR-27" style="edgeStyle=orthogonalEdgeStyle;rounded=0;orthogonalLoop=1;jettySize=auto;html=1;exitX=0;exitY=0.5;exitDx=0;exitDy=0;exitPerimeter=0;entryX=1;entryY=0.75;entryDx=0;entryDy=0;endArrow=none;endFill=0;" edge="1" parent="1" source="RfxXFTX7ezen7zibbZqR-12" target="RfxXFTX7ezen7zibbZqR-13">
          <mxGeometry relative="1" as="geometry" />
        </mxCell>
        <mxCell id="RfxXFTX7ezen7zibbZqR-45" value="VWIRE" style="edgeStyle=orthogonalEdgeStyle;rounded=0;orthogonalLoop=1;jettySize=auto;html=1;exitX=0;exitY=0.25;exitDx=0;exitDy=0;exitPerimeter=0;entryX=0;entryY=0.75;entryDx=0;entryDy=0;entryPerimeter=0;endArrow=none;endFill=0;" edge="1" parent="1" source="RfxXFTX7ezen7zibbZqR-12" target="RfxXFTX7ezen7zibbZqR-2">
          <mxGeometry x="0.6491" relative="1" as="geometry">
            <mxPoint as="offset" />
          </mxGeometry>
        </mxCell>
        <mxCell id="RfxXFTX7ezen7zibbZqR-12" value="Core Switch" style="points=[[0.015,0.015,0],[0.985,0.015,0],[0.985,0.985,0],[0.015,0.985,0],[0.25,0,0],[0.5,0,0],[0.75,0,0],[1,0.25,0],[1,0.5,0],[1,0.75,0],[0.75,1,0],[0.5,1,0],[0.25,1,0],[0,0.75,0],[0,0.5,0],[0,0.25,0]];verticalLabelPosition=bottom;html=1;verticalAlign=top;aspect=fixed;align=center;pointerEvents=1;shape=mxgraph.cisco19.rect;prIcon=l2_switch;fillColor=#FAFAFA;strokeColor=#005073;" vertex="1" parent="1">
          <mxGeometry x="515" y="675" width="50" height="50" as="geometry" />
        </mxCell>
        <mxCell id="RfxXFTX7ezen7zibbZqR-19" value="eth1/1" style="edgeStyle=orthogonalEdgeStyle;rounded=0;orthogonalLoop=1;jettySize=auto;html=1;exitX=0.5;exitY=1;exitDx=0;exitDy=0;exitPerimeter=0;entryX=0.015;entryY=0.015;entryDx=0;entryDy=0;entryPerimeter=0;endArrow=none;endFill=0;" edge="1" parent="1" source="RfxXFTX7ezen7zibbZqR-16" target="RfxXFTX7ezen7zibbZqR-2">
          <mxGeometry x="0.776" relative="1" as="geometry">
            <mxPoint as="offset" />
          </mxGeometry>
        </mxCell>
        <mxCell id="RfxXFTX7ezen7zibbZqR-35" style="edgeStyle=none;rounded=0;orthogonalLoop=1;jettySize=auto;html=1;exitX=0.5;exitY=0;exitDx=0;exitDy=0;exitPerimeter=0;endArrow=none;endFill=0;" edge="1" parent="1" source="RfxXFTX7ezen7zibbZqR-16" target="RfxXFTX7ezen7zibbZqR-18">
          <mxGeometry relative="1" as="geometry" />
        </mxCell>
        <mxCell id="RfxXFTX7ezen7zibbZqR-16" value="CPE ISP 1&lt;br&gt;2.3.4.5/28" style="points=[[0.5,0,0],[1,0.5,0],[0.5,1,0],[0,0.5,0],[0.145,0.145,0],[0.8555,0.145,0],[0.855,0.8555,0],[0.145,0.855,0]];verticalLabelPosition=middle;html=1;verticalAlign=middle;aspect=fixed;align=right;pointerEvents=1;shape=mxgraph.cisco19.rect;prIcon=router;fillColor=#FAFAFA;strokeColor=#005073;labelPosition=left;" vertex="1" parent="1">
          <mxGeometry x="500" y="420" width="50" height="50" as="geometry" />
        </mxCell>
        <mxCell id="RfxXFTX7ezen7zibbZqR-36" style="edgeStyle=none;rounded=0;orthogonalLoop=1;jettySize=auto;html=1;exitX=0.5;exitY=0;exitDx=0;exitDy=0;exitPerimeter=0;endArrow=none;endFill=0;" edge="1" parent="1" source="RfxXFTX7ezen7zibbZqR-17" target="RfxXFTX7ezen7zibbZqR-18">
          <mxGeometry relative="1" as="geometry" />
        </mxCell>
        <mxCell id="RfxXFTX7ezen7zibbZqR-17" value="CPE ISP 2&lt;br&gt;1.2.3.4/28" style="points=[[0.5,0,0],[1,0.5,0],[0.5,1,0],[0,0.5,0],[0.145,0.145,0],[0.8555,0.145,0],[0.855,0.8555,0],[0.145,0.855,0]];verticalLabelPosition=middle;html=1;verticalAlign=middle;aspect=fixed;align=left;pointerEvents=1;shape=mxgraph.cisco19.rect;prIcon=router;fillColor=#FAFAFA;strokeColor=#005073;labelPosition=right;" vertex="1" parent="1">
          <mxGeometry x="614" y="420" width="50" height="50" as="geometry" />
        </mxCell>
        <mxCell id="RfxXFTX7ezen7zibbZqR-18" value="Internet" style="ellipse;shape=cloud;whiteSpace=wrap;html=1;" vertex="1" parent="1">
          <mxGeometry x="350" y="180" width="235" height="140" as="geometry" />
        </mxCell>
        <mxCell id="RfxXFTX7ezen7zibbZqR-28" style="edgeStyle=orthogonalEdgeStyle;rounded=0;orthogonalLoop=1;jettySize=auto;html=1;exitX=1;exitY=0.5;exitDx=0;exitDy=0;exitPerimeter=0;endArrow=none;endFill=0;entryX=0;entryY=0.75;entryDx=0;entryDy=0;" edge="1" parent="1" source="RfxXFTX7ezen7zibbZqR-23" target="RfxXFTX7ezen7zibbZqR-14">
          <mxGeometry relative="1" as="geometry" />
        </mxCell>
        <mxCell id="RfxXFTX7ezen7zibbZqR-23" value="Core Switch" style="points=[[0.015,0.015,0],[0.985,0.015,0],[0.985,0.985,0],[0.015,0.985,0],[0.25,0,0],[0.5,0,0],[0.75,0,0],[1,0.25,0],[1,0.5,0],[1,0.75,0],[0.75,1,0],[0.5,1,0],[0.25,1,0],[0,0.75,0],[0,0.5,0],[0,0.25,0]];verticalLabelPosition=bottom;html=1;verticalAlign=top;aspect=fixed;align=center;pointerEvents=1;shape=mxgraph.cisco19.rect;prIcon=l2_switch;fillColor=#FAFAFA;strokeColor=#005073;" vertex="1" parent="1">
          <mxGeometry x="600" y="675" width="50" height="50" as="geometry" />
        </mxCell>
        <mxCell id="RfxXFTX7ezen7zibbZqR-30" value="HQ Network / Datacenter&lt;br&gt;10.100.2.0/24" style="rounded=1;whiteSpace=wrap;html=1;labelPosition=center;verticalLabelPosition=bottom;align=center;verticalAlign=top;strokeColor=#82b366;fillColor=none;" vertex="1" parent="1">
          <mxGeometry x="830" y="113" width="270" height="150" as="geometry" />
        </mxCell>
        <mxCell id="RfxXFTX7ezen7zibbZqR-32" style="rounded=0;orthogonalLoop=1;jettySize=auto;html=1;exitX=0;exitY=0.5;exitDx=0;exitDy=0;exitPerimeter=0;endArrow=none;endFill=0;" edge="1" parent="1" source="RfxXFTX7ezen7zibbZqR-31" target="RfxXFTX7ezen7zibbZqR-18">
          <mxGeometry relative="1" as="geometry" />
        </mxCell>
        <mxCell id="RfxXFTX7ezen7zibbZqR-33" style="edgeStyle=none;rounded=0;orthogonalLoop=1;jettySize=auto;html=1;exitX=1;exitY=0.5;exitDx=0;exitDy=0;exitPerimeter=0;entryX=0;entryY=0.75;entryDx=0;entryDy=0;endArrow=none;endFill=0;" edge="1" parent="1" source="RfxXFTX7ezen7zibbZqR-31" target="RfxXFTX7ezen7zibbZqR-30">
          <mxGeometry relative="1" as="geometry" />
        </mxCell>
        <mxCell id="RfxXFTX7ezen7zibbZqR-31" value="" style="points=[[0.015,0.015,0],[0.985,0.015,0],[0.985,0.985,0],[0.015,0.985,0],[0.25,0,0],[0.5,0,0],[0.75,0,0],[1,0.25,0],[1,0.5,0],[1,0.75,0],[0.75,1,0],[0.5,1,0],[0.25,1,0],[0,0.75,0],[0,0.5,0],[0,0.25,0]];verticalLabelPosition=bottom;html=1;verticalAlign=top;aspect=fixed;align=center;pointerEvents=1;shape=mxgraph.cisco19.rect;prIcon=firewall;fillColor=#FAFAFA;strokeColor=#005073;" vertex="1" parent="1">
          <mxGeometry x="710" y="200" width="64" height="50" as="geometry" />
        </mxCell>
        <mxCell id="RfxXFTX7ezen7zibbZqR-48" style="edgeStyle=none;rounded=0;orthogonalLoop=1;jettySize=auto;html=1;exitX=0.5;exitY=1;exitDx=0;exitDy=0;exitPerimeter=0;endArrow=none;endFill=0;" edge="1" parent="1" source="RfxXFTX7ezen7zibbZqR-34">
          <mxGeometry relative="1" as="geometry">
            <mxPoint x="965" y="230" as="targetPoint" />
          </mxGeometry>
        </mxCell>
        <mxCell id="RfxXFTX7ezen7zibbZqR-34" value="SRV DC&lt;br&gt;10.100.2.30" style="points=[[0.015,0.015,0],[0.985,0.015,0],[0.985,0.985,0],[0.015,0.985,0],[0.25,0,0],[0.5,0,0],[0.75,0,0],[1,0.25,0],[1,0.5,0],[1,0.75,0],[0.75,1,0],[0.5,1,0],[0.25,1,0],[0,0.75,0],[0,0.5,0],[0,0.25,0]];verticalLabelPosition=middle;html=1;verticalAlign=middle;aspect=fixed;align=left;pointerEvents=1;shape=mxgraph.cisco19.server;fillColor=#005073;strokeColor=none;labelPosition=right;spacingLeft=2;" vertex="1" parent="1">
          <mxGeometry x="951.25" y="150" width="27.500000000000004" height="50" as="geometry" />
        </mxCell>
        <mxCell id="RfxXFTX7ezen7zibbZqR-39" style="edgeStyle=none;rounded=0;orthogonalLoop=1;jettySize=auto;html=1;exitX=0;exitY=0.75;exitDx=0;exitDy=0;entryX=1;entryY=0.75;entryDx=0;entryDy=0;endArrow=none;endFill=0;" edge="1" parent="1" source="RfxXFTX7ezen7zibbZqR-13" target="RfxXFTX7ezen7zibbZqR-13">
          <mxGeometry relative="1" as="geometry" />
        </mxCell>
        <mxCell id="RfxXFTX7ezen7zibbZqR-40" style="edgeStyle=none;rounded=0;orthogonalLoop=1;jettySize=auto;html=1;exitX=0;exitY=0.75;exitDx=0;exitDy=0;entryX=1;entryY=0.75;entryDx=0;entryDy=0;endArrow=none;endFill=0;" edge="1" parent="1" source="RfxXFTX7ezen7zibbZqR-14" target="RfxXFTX7ezen7zibbZqR-14">
          <mxGeometry relative="1" as="geometry" />
        </mxCell>
        <mxCell id="RfxXFTX7ezen7zibbZqR-47" style="edgeStyle=none;rounded=0;orthogonalLoop=1;jettySize=auto;html=1;exitX=0;exitY=0.75;exitDx=0;exitDy=0;entryX=1;entryY=0.75;entryDx=0;entryDy=0;endArrow=none;endFill=0;" edge="1" parent="1" source="RfxXFTX7ezen7zibbZqR-30" target="RfxXFTX7ezen7zibbZqR-30">
          <mxGeometry relative="1" as="geometry" />
        </mxCell>
      </root>
    </mxGraphModel>
  </diagram>
</mxfile>
